<?xml version="1.0" encoding="UTF-8"?>
<svg width="105px" height="98px" viewBox="0 0 105 98" version="1.1" xmlns="http://www.w3.org/2000/svg" xmlns:xlink="http://www.w3.org/1999/xlink">
    <title>5A0B370E-D4E1-43E1-AB9E-5237C4602C7E@0.0x</title>
    <g id="页面-1" stroke="none" stroke-width="1" fill="none" fill-rule="evenodd">
        <g id="销售管理" transform="translate(-504.000000, -1481.000000)">
            <g id="编组-2" transform="translate(504.958100, 1480.999700)">
                <path d="M11.3407,4.999 C11.3407,7.76 9.1027,9.998 6.3417,9.998 C3.5807,9.998 1.3427,7.76 1.3427,4.999 C1.3427,2.238 3.5807,-7.27595761e-12 6.3417,-7.27595761e-12 C9.1027,-7.27595761e-12 11.3407,2.238 11.3407,4.999" id="Fill-8" fill="#A3E1FF"></path>
                <path d="M52.662,50.8543 L6.516,50.8543 C2.917,50.8543 0,47.9373 0,44.3383 L0,27.1833 L52.662,27.1833 C56.261,27.1833 59.178,30.1003 59.178,33.6993 L59.178,44.3383 C59.178,47.9373 56.261,50.8543 52.662,50.8543" id="Fill-9" fill="#A3E1FF"></path>
                <path d="M57.8683,97.6117 L95.9953,97.6117 C99.9403,97.6117 103.1393,94.4127 103.1393,90.4677 L103.1393,65.4867 L57.8683,65.4867 C53.9223,65.4867 50.7243,68.6847 50.7243,72.6307 L50.7243,90.4677 C50.7243,94.4127 53.9223,97.6117 57.8683,97.6117" id="Fill-10" fill="#A3E1FF"></path>
                <path d="M20.1562,35.3097 C19.2522,35.3097 19.0312,35.5307 19.0302,36.4347 L19.0292,78.8757 C19.0302,79.7627 19.2542,79.9927 20.1182,79.9927 L42.2042,79.9927 C43.0802,79.9927 43.3072,79.7657 43.3072,78.8897 L43.3082,36.4037 C43.3082,35.5347 43.0792,35.3097 42.1962,35.3097 L33.0122,35.3097 L20.1562,35.3097 Z M19.5992,84.8647 C16.8142,84.8627 14.6442,83.0127 14.1982,80.2617 C14.1572,80.0067 14.1572,79.7317 14.1572,79.4407 L14.1562,57.6617 L14.1622,51.4297 C14.1692,46.2637 14.1762,41.0977 14.1390643,35.9317 C14.1202,33.2007 16.0982,30.8567 18.7402,30.4787 C19.0012,30.4417 19.2682,30.4377 19.5322,30.4377 L33.8512,30.4337 L42.7152,30.4367 C45.5012,30.4387 47.6782,32.2807 48.1352,35.0197 C48.1792,35.2857 48.1792,35.5827 48.1792,35.8457 C48.1812,50.3907 48.1842,64.9357 48.1782,79.4807 C48.1772,82.5467 45.8572,84.8617 42.7822,84.8647 C38.7852,84.8687 34.7882,84.8707 30.7902,84.8707 C27.0602,84.8707 23.3302,84.8687 19.5992,84.8647 L19.5992,84.8647 Z" id="Fill-17" fill="#000000"></path>
                <path d="M61.0131,58.6307 C60.0721,58.6307 59.8431,58.8617 59.8431,59.8067 L59.8431,78.8367 C59.8431,79.7667 60.0671,79.9937 60.9861,79.9937 L82.9751,79.9937 C83.8961,79.9937 84.1211,79.7677 84.1211,78.8407 L84.1201,59.7647 C84.1201,58.8527 83.9011,58.6307 83.0021,58.6307 L67.6321,58.6307 L61.0131,58.6307 Z M60.4591,84.8667 C57.6201,84.8647 55.4821,83.0567 55.0111,80.2597 C54.9721,80.0277 54.9711,79.7727 54.9711,79.5257 L54.9701,76.6197 C54.9681,70.8027 54.9651,64.9847 54.9711,59.1677 C54.9741,56.0867 57.3041,53.7617 60.3901,53.7587 L71.9811,53.7547 C75.8451,53.7547 79.7091,53.7557 83.5731,53.7597 C86.6571,53.7617 88.9871,56.0867 88.9921,59.1667 C89.0021,65.9527 89.0031,72.7387 88.9921,79.5247 C88.9861,82.5097 86.6361,84.8557 83.6401,84.8647 C82.1201,84.8697 80.5991,84.8707 79.0781,84.8707 L60.4591,84.8667 Z" id="Fill-18" fill="#000000"></path>
                <path d="M83.0492,42.1185 C83.2882,42.1185 83.6282,42.0905 83.8722,41.8455 C84.1132,41.6035 84.1442,41.2755 84.1432228,41.0175 C84.1332,36.0815 84.1332,31.1465 84.1332,26.2105 L84.1332,21.8485 C84.1332,20.9405 83.9112,20.7185 82.9982,20.7185 L66.8022,20.7205 C64.8402,20.7205 62.8782,20.7185 60.9152,20.7095 L60.9032,20.7095 C60.6722,20.7095 60.3352,20.7375 60.0922,20.9815 C59.8502,21.2245 59.8202,21.5525 59.8202,21.8105 C59.8332,28.2155 59.8332,34.6195 59.8202,41.0245 C59.8202,41.2795 59.8502,41.6035 60.0912,41.8455 C60.3332,42.0875 60.6592,42.1185 60.9162,42.1185 C64.6262,42.1125 68.3332,42.1095 72.0382,42.1095 C75.7092,42.1095 83.0492,42.1185 83.0492,42.1185 L83.0492,42.1185 Z M60.4662,46.9545 C57.2872,46.9515 54.9812,44.6425 54.9812,41.4635 L54.9812,34.7255 C54.9802,30.2315 54.9802,25.7365 54.9862,21.2425 C54.9882,19.4245 55.7472,17.9495 57.2422,16.8575 C58.1322,16.2075 59.1202,15.8775 60.1792,15.8765 L73.0132,15.8705 C76.6152,15.8705 80.2152,15.8725 83.8162,15.8795 C86.5542,15.8835 88.9642,18.2775 88.9722,21.0015 C88.9942,27.9205 88.9932,34.9385 88.9702,41.8585 C88.9622,44.5045 86.5322,46.9295 83.8732,46.9465 C82.2802,46.9565 80.6872,46.9595 79.0932,46.9595 L60.4662,46.9545 Z" id="Fill-19" fill="#000000"></path>
                <path d="M29.3017,44.056 C28.9307,44.056 28.5607,44.055 28.1907,44.051 C26.8827,44.039 25.8177,42.951 25.8166993,41.626 C25.8157,40.268 26.8507,39.195 28.1717,39.185 C29.1607,39.177 30.1497,39.173 31.1387,39.173 C32.1497,39.173 33.1607,39.178 34.1727,39.186 C35.4917,39.197 36.5227,40.271 36.5197065,41.632 C36.5157,42.974 35.4727,44.036 34.1437,44.051 C33.7647,44.055 33.3857,44.056 33.0067,44.056 C33.0067,44.056 29.3027,44.056 29.3017,44.056" id="Fill-20" fill="#000000"></path>
                <path d="M69.0053,67.3726 C67.6703,67.3576 66.6273,66.2746 66.6302935,64.9056 C66.6333,63.5876 67.7093,62.5106 69.0263,62.5046 C69.9903,62.5006 70.9543,62.4986 71.9193,62.4986 C72.9103,62.4986 73.9013,62.5006 74.8943,62.5046 C76.2863,62.5106 77.3343,63.5626 77.3323029,64.9506 C77.3303,66.3246 76.2713,67.3666 74.8683,67.3746 L70.1283,67.3776 C69.7543,67.3776 69.3793,67.3766 69.0053,67.3726" id="Fill-21" fill="#000000"></path>
                <path d="M69.0312,29.462 C67.6882,29.451 66.6392,28.375 66.6441822,27.013 C66.6492,25.676 67.7032,24.626 69.0442,24.621 C70.0132,24.617 70.9832,24.615 71.9532,24.615 C72.9402,24.615 73.9262,24.617 74.9122,24.621 C75.5782,24.623 76.1892,24.875 76.6332,25.33 C77.0782,25.787 77.3222,26.412 77.3202122,27.092 C77.3142,28.418 76.2502,29.459 74.8982,29.463 L70.1722,29.466 L69.0312,29.462 Z" id="Fill-22" fill="#000000"></path>
            </g>
        </g>
    </g>
</svg>