<?xml version="1.0" encoding="UTF-8"?>
<svg width="97px" height="83px" viewBox="0 0 97 83" version="1.1" xmlns="http://www.w3.org/2000/svg" xmlns:xlink="http://www.w3.org/1999/xlink">
    <title>D44BA7CE-A162-47D3-A8C9-3DFA419DA229@0.0x</title>
    <g id="页面-1" stroke="none" stroke-width="1" fill="none" fill-rule="evenodd">
        <g id="画板" transform="translate(-910.000000, -879.000000)">
            <g id="编组-3" transform="translate(910.000000, 879.000000)">
                <path d="M21.839,71.2029 C21.839,77.2339 16.95,82.1229 10.919,82.1229 C4.889,82.1229 0,77.2339 0,71.2029 C0,65.1719 4.889,60.2829 10.919,60.2829 C16.95,60.2829 21.839,65.1719 21.839,71.2029" id="Fill-17" fill="#A3E1FF"></path>
                <path d="M90.453,66.6355 C93.669,66.6355 96.277,69.2425 96.277,72.4595 C96.277,75.6755 93.669,78.2835 90.453,78.2835 C87.237,78.2835 84.629,75.6755 84.629,72.4595 C84.629,69.2425 87.237,66.6355 90.453,66.6355" id="Fill-18" fill="#A3E1FF"></path>
                <path d="M10.7587,8.5863 C10.7587,10.5963 9.1287,12.2263 7.1187,12.2263 C5.1087,12.2263 3.4787,10.5963 3.4787,8.5863 C3.4787,6.5763 5.1087,4.9463 7.1187,4.9463 C9.1287,4.9463 10.7587,6.5763 10.7587,8.5863" id="Fill-19" fill="#A3E1FF"></path>
                <path d="M83.0196,17.829 C78.3156,13.125 71.8986,10.431 65.7846,10.627 C65.7716,10.627 65.7586,10.624 65.7446,10.623 L65.3166,10.604 L64.8826,10.597 L64.4456,10.605 C61.8406,10.694 59.3226,11.563 57.2166,13.098 L56.9486,13.3 C56.6706,13.478 56.3966,13.665 56.1266,13.861 C54.1576,15.017 51.6926,15.041 49.6896,13.853 L49.4346,13.693 L49.1226,13.473 L49.1236,13.473 L48.9976,13.377 C46.4476,11.377 43.3516,10.47 40.3056,10.616 C34.3126,10.346 27.9516,13.007 22.7996,17.852 L22.7996,17.853 C18.0956,22.277 16.2816,29.403 16.9426,36.043 C18.1126,47.8 29.5426,61.631 51.2336,77.536 C52.2396,78.273 53.6176,78.273 54.6226,77.534 C76.3116,61.592 87.7396,47.775 88.9066,36.086 C89.5706,29.43 87.6076,22.417 83.0196,17.829" id="Fill-20" fill="#A3E1FF"></path>
                <path d="M29.7827,3.903 C27.8917,3.903 26.1167,4.635 24.7857,5.966 C23.4547,7.297 22.7217,9.071 22.722699,10.963 C22.722699,14.843 25.8857,18.001 29.7737,18.001 C31.6607,17.999 33.4297,17.263 34.7607,15.927 C36.0917,14.592 36.8227,12.821 36.8197092,10.94 C36.8147,7.066 33.6627,3.909 29.7937,3.903 L29.7827,3.903 Z M25.3787,62.399 C24.2447,62.397 23.4537,61.686 23.3147,60.542 C23.0617,58.469 22.8007,56.397 22.5387,54.325 L21.3327,44.663 C21.3137,44.513 21.1857,44.4 21.0347,44.4 L18.6257,44.4 C17.6007,44.396 16.9277,43.892 16.6237,42.903 C16.6187,42.885 16.5937,42.833 16.5737,42.793 L16.5737,34.716 C16.6067,34.549 16.6387,34.331 16.6707,34.112 C16.7377,33.662 16.8057,33.196 16.9187,32.758 C18.1907,27.815 21.2897,24.546 26.1267,23.042 C26.6807,22.87 27.2827,22.778 27.8647,22.69 C28.1457,22.647 28.4277,22.605 28.7067,22.553 C28.7837,22.538 28.8747,22.518 28.9797,22.454 C29.0887,22.387 29.1437,22.258 29.1157,22.133 C29.0887,22.008 28.9847,21.914 28.8577,21.9 C25.6067,21.528 22.9977,20.089 21.1007,17.622 C19.1317,15.062 18.4247,12.179 18.9987,9.054 C19.9777,3.723 24.4157,0 29.7907,0 C29.9627,0 30.1357,0.004 30.3087,0.012 C35.5877,0.25 40.1297,4.507 40.6487,9.703 C40.9587,12.804 40.1407,15.563 38.2177,17.903 C36.3307,20.199 33.7967,21.553 30.6867,21.927 C30.5357,21.945 30.4227,22.072 30.4227,22.224 C30.4217,22.376 30.5347,22.504 30.6857,22.523 L30.9827,22.553 C31.1807,22.572 31.3787,22.59 31.5707,22.635 L32.2067,22.78 C32.9237,22.942 33.6637,23.109 34.3627,23.339 C34.8757,23.508 35.2827,23.858 35.5107,24.323 C35.7387,24.791 35.7637,25.328 35.5817,25.834 C35.3017,26.613 34.5897,27.116 33.7687,27.116 C33.5247,27.116 33.2807,27.072 33.0417,26.985 C31.9837,26.599 30.8867,26.403 29.7817,26.403 C26.5407,26.403 23.5857,28.045 21.8767,30.795 C20.9647,32.264 20.4927,33.872 20.4757,35.575 C20.4657,36.626 20.4677,37.676 20.4707,38.744 L20.4727,40.2 C20.4727,40.366 20.6077,40.5 20.7727,40.5 L22.9457,40.501 C24.0347,40.507 24.8257,41.195 24.9617,42.255 C25.1927,44.066 25.4167,45.878 25.6397,47.691 L26.0377,50.898 L26.9567,58.209 C26.9757,58.359 27.1037,58.471 27.2547,58.471 L32.2877,58.471 C32.4387,58.471 32.5667,58.359 32.5857,58.209 L34.1457,45.767 C34.2897,44.631 34.4337,43.494 34.5657,42.357 C34.6997,41.214 35.4907,40.503 36.6307,40.501 L40.9177,40.501 C41.5107,40.502 42.0467,40.713 42.4257,41.095 C42.7797,41.452 42.9737,41.939 42.9707343,42.466 C42.9657,43.565 42.0837,44.397 40.9187,44.4 L38.5107,44.4 C38.3597,44.4 38.2317,44.512 38.2127,44.662 L36.6897,56.811 C36.5327,58.054 36.3747,59.297 36.2297,60.541 C36.0947,61.686 35.3047,62.398 34.1667,62.399 L29.7727,62.4 L25.3787,62.399 Z" id="Fill-21" fill="#000000"></path>
                <path d="M74.7724,3.903 C70.8874,3.903 67.7244,7.063 67.7203908,10.945 C67.7174,12.827 68.4494,14.598 69.7794,15.931 C71.1104,17.265 72.8794,18 74.7614,18.0010002 C78.6514,18.002 81.8144,14.841 81.816401,10.957 C81.8174,9.075 81.0844,7.304 79.7534,5.971 C78.4214,4.637 76.6524,3.903 74.7724,3.903 L74.7724,3.903 Z M70.4144,62.399 C69.2244,62.398 68.4584,61.709 68.3114,60.508 C68.0644,58.489 67.8104,56.473 67.5554,54.456 L66.3334,44.663 C66.3144,44.513 66.1874,44.4 66.0354,44.4 L63.5594,44.399 C62.4204,44.389 61.5654,43.546 61.5703782,42.438 C61.5764,41.358 62.4454,40.508 63.5504,40.502 C64.2614,40.499 64.9724,40.497 65.6834,40.497 L67.9764,40.502 C69.0274,40.506 69.8224,41.195 69.9564,42.215 C70.1764,43.904 70.3854,45.595 70.5934,47.286 L71.9594,58.218 C71.9784,58.368 72.1054,58.481 72.2574,58.481 L77.2794,58.481 C77.4304,58.481 77.5584,58.368 77.5774,58.218 L79.1444,45.735 C79.2884,44.598 79.4314,43.462 79.5644,42.324 C79.6934,41.222 80.4874,40.507 81.5874,40.501 L83.7084,40.5 C83.8134,40.5 83.9094,40.446 83.9644,40.357 C83.9944,40.308 84.0594,40.167 84.0574,40.109 C84.0524,39.561 84.0564,39.006 84.0614,38.452 C84.0694,37.217 84.0794,35.941 83.9854,34.686 C83.6894,30.725 80.3534,27.155 76.3894,26.559 C75.8314,26.476 75.2714,26.433 74.7244,26.433 C74.3904,26.433 74.0584,26.449 73.7304,26.482 C73.6364,26.491 73.5434,26.496 73.4544,26.496 C72.8044,26.496 72.2334,26.247 71.8474,25.794 C71.4754,25.359 71.3134,24.789 71.4024,24.231 C71.5444,23.334 72.2794,22.687 73.2744,22.581 L73.3794,22.57 C73.5434,22.554 73.7084,22.537 73.8794,22.495 C74.0204,22.46 74.1164,22.329 74.1064,22.185 C74.0984,22.04 73.9864,21.923 73.8424,21.905 C70.4724,21.507 67.8054,19.983 65.9144,17.376 C63.9604,14.682 63.3574,11.667 64.1224,8.416 C65.2864,3.465 69.6224,0.007 74.6684,0.007 C74.9224,0.007 75.1784,0.016 75.4354,0.034 C81.1324,0.436 85.3514,4.68 85.6944,10.354 C86.0494,16.245 81.4724,21.54 75.6984,21.917 C75.5444,21.926 75.4234,22.051 75.4184,22.205 C75.4124,22.359 75.5234,22.492 75.6764,22.513 L76.0954,22.57 C76.4084,22.611 76.7214,22.652 77.0334,22.703 C82.2434,23.565 86.4924,27.59 87.6074,32.717 C87.8094,33.645 87.9254,34.679 87.9514,35.792 C87.9894,37.379 87.9814,38.995 87.9734,40.559 L87.9674,42.322 C87.9654,43.582 87.1474,44.398 85.8824,44.4 L83.5054,44.4 C83.3544,44.4 83.2274,44.512 83.2084,44.662 L81.6764,56.877 C81.5224,58.085 81.3694,59.292 81.2284,60.501 C81.0894,61.689 80.3054,62.398 79.1314,62.399 L74.7724,62.4 L70.4144,62.399 Z" id="Fill-22" fill="#000000"></path>
                <path d="M49.0971,29.2443 C49.2751,29.2443 49.4511,29.2503 49.6261,29.2743 C50.6471,29.4153 51.3071,30.2313 51.3101,31.3513 C51.3141,33.1163 51.3121,38.7663 51.3121,38.7663 L51.3121,39.0773 C51.3121,39.1993 51.3851,39.3083 51.4971,39.3553 C51.5351,39.3703 51.5741,39.3773 51.6121,39.3773 C51.6901,39.3773 51.7671,39.3473 51.8241,39.2893 L61.8791,29.2373 C61.9931,29.1953 62.0741,29.0873 62.0761196,28.9593 C62.0781,28.7953 61.9271,28.6573 61.7631,28.6533 C61.7601,28.6533 58.6231,28.6513 58.6231,28.6513 C57.1781,28.6513 56.4121,27.8933 56.4111,26.4593 L56.4111,18.7613 C56.4111,18.6393 56.3391,18.5303 56.2261,18.4833 C56.1891,18.4683 56.1501,18.4613 56.1121,18.4613 C56.0341,18.4613 55.9571,18.4913 55.8991,18.5493 L45.7131,28.7393 C45.6271,28.8243 45.6011,28.9533 45.6481,29.0653 C45.6951,29.1783 45.8041,29.2503 45.9251,29.2503 L48.8011,29.2483 L49.0971,29.2443 Z M49.3421,46.6553 C48.9531,46.6553 48.5811,46.5313 48.2351,46.2863 C47.6761,45.8903 47.4061,45.3273 47.4091,44.5633 C47.4141,43.1583 47.4131,41.7533 47.4121,40.3483 L47.4121,33.4513 C47.4121,33.2853 47.2781,33.1513 47.1121,33.1513 L44.5001,33.1563 C44.0301,33.1563 43.5611,33.1533 43.0911,33.1463 C41.3491,33.1193 39.9941,31.7573 40.0050335,30.0443 C40.0101,29.1953 40.3401,28.4563 41.0121,27.7883 C42.1551,26.6533 43.2931,25.5133 44.4311,24.3733 L56.8981,11.9083 C57.3221,11.4843 57.8521,11.2503 58.3911,11.2503 C58.9561,11.2503 59.4781,11.5033 59.8611,11.9633 C60.1701,12.3343 60.3141,12.7933 60.3131,13.4073 L60.3121,24.4513 C60.3121,24.6163 60.4461,24.7503 60.6121,24.7503 L64.5591,24.7523 C65.7051,24.7593 66.5701,25.2123 67.2031,26.1403 C67.9541,27.2393 67.8661,28.7763 66.9931,29.7933 C66.8911,29.9123 66.7861,30.0293 66.6761,30.1393 L50.8421,45.9723 C50.3951,46.4193 49.8761,46.6553 49.3421,46.6553 L49.3421,46.6553 Z" id="Fill-23" fill="#000000"></path>
            </g>
        </g>
    </g>
</svg>